       <svg version="1.1" xmlns="http://www.w3.org/2000/svg" xmlns:xlink="http://www.w3.org/1999/xlink" viewBox="0 0 1200 600" xml:space="preserve">
                    <rect x="539.892" y="500.265" fill="#BCC7CC" width="114.491" height="12.454" /> 
                    <path fill="#4a4c61" d="M654.383,514.345H539.891c-0.898,0-1.626-0.729-1.626-1.626v-12.454c0-0.898,0.729-1.626,1.626-1.626h114.492c0.897,0,1.626,0.729,1.626,1.626v12.454C656.009,513.616,655.28,514.345,654.383,514.345z M541.518,511.092h111.238v-9.201H541.518V511.092z" />
                    <polygon fill="#BCC7CC" points="557.568,500.265 562.79,456.879 632.293,456.879 637.516,500.265" />
                    <path fill="#4a4c61" d="M637.515,501.891h-79.947c-0.466,0-0.909-0.199-1.218-0.547c-0.307-0.348-0.453-0.811-0.396-1.274l5.22-43.386c0.1-0.816,0.792-1.432,1.616-1.432h69.502c0.824,0,1.517,0.615,1.614,1.432l5.225,43.386c0.055,0.463-0.092,0.926-0.398,1.274C638.424,501.692,637.98,501.891,637.515,501.891z M559.402,498.638h76.279l-4.831-40.133h-66.617L559.402,498.638z" />
                    <path fill="#BCC7CC" d="M700,455H450c-5,0-9-4-9-9V225c0-3,2.6-5.6,5.6-5.6h305c3,5,5,3,5,5v220C751,453,747,457,742,455z" />
                    <rect fill="#c6d3d8" x="440" y="220" width="315" height="200"/>
                    <path fill="#4a4c61" d="M734.846,458.505h-275.82c-11.906,0-21.593-9.687-21.593-21.593V232.152c0-7.562,6.152-13.713,13.715-13.713h291.579c7.56,0,13.712,6.152,13.712,13.713v204.761C756.438,448.818,746.752,458.505,734.846,458.505z M451.147,221.691c-5.769,0-10.462,4.693-10.462,10.46v204.761c0,10.112,8.228,18.34,18.34,18.34h275.82c10.112,0,18.34-8.228,18.34-18.34V232.152c0-5.768-4.693-10.46-10.459-10.46H451.147z" />
                    <path fill="#4a4c61" d="M739.363,406.979H454.911c-0.898,0-1.626-0.729-1.626-1.626V236.615c0-0.898,0.729-1.626,1.626-1.626h284.453c0.897,0,1.626,0.729,1.626,1.626v168.737C740.989,406.25,740.261,406.979,739.363,406.979z M456.537,403.726h281.199V238.241H456.537V403.726z" />
                    <rect fill="#D3E0E6" x="456" y="239" width="281" height="165"/>
                    <rect x="439.059" y="420.705" fill="#4a4c61" width="315.753" height="3.253" />
                    <path fill="#4a4c61" d="M596.937,449.803c-4.847,0-8.793-3.944-8.793-8.792c0-4.848,3.946-8.792,8.793-8.792c4.848,0,8.792,3.944,8.792,8.792C605.729,445.859,601.784,449.803,596.937,449.803z M596.937,435.472c-3.054,0-5.54,2.485-5.54,5.539c0,3.055,2.486,5.54,5.54,5.54s5.54-2.485,5.54-5.54C602.477,437.957,599.99,435.472,596.937,435.472z" />
                    <rect x="102.5" y="512.997" fill="#BCC7CC" width="988.873" height="26.436" />
                    <path fill="#4a4c61" d="M1091.373,541.059H102.5c-0.898,0-1.626-0.729-1.626-1.626v-26.436c0-0.898,0.729-1.626,1.626-1.626h988.873c0.898,0,1.627,0.729,1.627,1.626v26.436C1093,540.33,1092.271,541.059,1091.373,541.059z M104.126,537.806h985.62v-23.183h-985.62V537.806z" />
                    <rect x="836.658" y="452.377" fill="#D3E0E6" width="50.327" height="59.715" />
                    <path fill="#4a4c61" d="M886.985,513.718h-50.327c-0.897,0-1.626-0.729-1.626-1.626v-59.714c0-0.898,0.729-1.626,1.626-1.626h50.327c0.897,0,1.626,0.729,1.626,1.626v59.714C888.611,512.989,887.883,513.718,886.985,513.718z M838.286,510.465h47.073v-56.461h-47.073V510.465z" />
                    <path fill="#4a4c61" d="M886.985,497.681v-3.253c8.329,0,13.151-1.995,13.151-12.194s-4.822-12.194-13.151-12.194v-3.253c8.11,0,16.403,1.835,16.403,15.447S895.096,497.681,886.985,497.681z" />
                    <rect x="860.195" y="452.377" fill="#4a4c61" width="3.254" height="19.731" />
                    <rect x="855.563" y="472.108" fill="#D3E0E6" width="12.517" height="16.515" />
                    <path fill="#4a4c61" d="M868.08,490.25h-12.516c-0.898,0-1.627-0.729-1.627-1.626v-16.515c0-0.898,0.729-1.626,1.627-1.626h12.516c0.898,0,1.627,0.729,1.627,1.626v16.515C869.707,489.521,868.979,490.25,868.08,490.25z M857.191,486.997h9.263v-13.262h-9.263V486.997z" />
                    <polygon fill="#D3E0E6" points="336.809,395.382 304.151,395.382 304.151,350.053 349.48,350.053 349.48,382.385" />
                    <path fill="#4a4c61" d="M336.74,397.009h-32.658c-0.898,0-1.626-0.729-1.626-1.626v-45.329c0-0.898,0.729-1.626,1.626-1.626h45.328c0.898,0,1.626,0.729,1.626,1.626v32.333c0,0.425-0.166,0.831-0.462,1.135l-12.67,12.997C337.598,396.832,337.178,397.009,336.74,397.009z M305.708,393.756h30.345l11.73-12.032V351.68h-42.075V393.756z" />
                    <polygon fill="#D3E0E6" points="349.411,382.068 336.739,382.068 336.739,395.382" />
                    <path fill="#4a4c61" d="M336.74,397.009c-0.204,0-0.409-0.038-0.604-0.117c-0.619-0.247-1.023-0.845-1.023-1.51v-13.314c0-0.898,0.729-1.626,1.626-1.626h12.67c0.65,0,1.239,0.388,1.495,0.986c0.256,0.597,0.131,1.291-0.318,1.762l-12.67,13.314C337.604,396.833,337.176,397.009,336.74,397.009z M338.366,383.694v7.62l7.251-7.62H338.366z" />
                    <path fill="#f27360" d="M341.494,360.396h-29.356c-0.898,0-1.626-0.729-1.626-1.626s0.729-1.626,1.626-1.626h29.356c0.898,0,1.626,0.729,1.626,1.626S342.392,360.396,341.494,360.396z" />
                    <path fill="#f27360" d="M331.983,367.887h-19.845c-0.898,0-1.626-0.729-1.626-1.626s0.729-1.626,1.626-1.626h19.845c0.898,0,1.626,0.729,1.626,1.626S332.881,367.887,331.983,367.887z" />
                    <path fill="#f27360" d="M341.494,375.376h-29.356c-0.898,0-1.626-0.729-1.626-1.626s0.729-1.626,1.626-1.626h29.356c0.898,0,1.626,0.729,1.626,1.626S342.392,375.376,341.494,375.376z" />
                    <polygon fill="#D3E0E6" points="823.803,328.205 791.145,328.205 791.145,282.875 836.475,282.875 836.475,315.208" />
                    <path fill="#4a4c61" d="M823.801,329.832h-32.656c-0.898,0-1.627-0.729-1.627-1.626v-45.329c0-0.898,0.729-1.626,1.627-1.626h45.33c0.897,0,1.625,0.729,1.625,1.626v32.332c0,0.424-0.164,0.831-0.461,1.135l-12.672,12.998C824.659,329.655,824.24,329.832,823.801,329.832z M792.77,326.579h30.346l11.732-12.033v-30.043H792.77V326.579z" />
                    <polygon fill="#D3E0E6" points="836.475,314.89 823.803,314.89 823.803,328.205" />
                    <path fill="#4a4c61" d="M823.801,329.832c-0.203,0-0.408-0.038-0.604-0.117c-0.617-0.247-1.022-0.845-1.022-1.51v-13.314c0-0.898,0.729-1.626,1.626-1.626h12.674c0.649,0,1.238,0.388,1.494,0.986c0.256,0.597,0.131,1.291-0.317,1.762l-12.673,13.314C824.666,329.656,824.238,329.832,823.801,329.832z M825.428,316.517v7.62l7.254-7.62H825.428z" />
                    <path fill="#f27360" d="M828.559,293.218h-29.359c-0.897,0-1.626-0.729-1.626-1.626s0.729-1.626,1.626-1.626h29.359c0.897,0,1.625,0.729,1.625,1.626S829.456,293.218,828.559,293.218z" />
                    <path fill="#f27360" d="M819.047,300.708h-19.848c-0.897,0-1.626-0.729-1.626-1.626c0-0.898,0.729-1.626,1.626-1.626h19.848c0.898,0,1.627,0.729,1.627,1.626C820.674,299.979,819.945,300.708,819.047,300.708z" />
                    <path fill="#f27360" d="M828.559,308.199h-29.359c-0.897,0-1.626-0.729-1.626-1.626s0.729-1.626,1.626-1.626h29.359c0.897,0,1.625,0.729,1.625,1.626S829.456,308.199,828.559,308.199z" />
                    <rect x="366.711" y="316.897" fill="#D3E0E6" width="45.329" height="45.329" />
                    <path fill="#4a4c61" d="M412.041,363.853H366.71c-0.897,0-1.626-0.729-1.626-1.626v-45.329c0-0.898,0.729-1.626,1.626-1.626h45.331c0.898,0,1.626,0.729,1.626,1.626v45.329C413.667,363.124,412.938,363.853,412.041,363.853z M368.337,360.6h42.077v-42.076h-42.077V360.6z" />
                    <path fill="#f27360" d="M397.945,327.24h-23.179c-0.898,0-1.626-0.729-1.626-1.626s0.728-1.626,1.626-1.626h23.179c0.898,0,1.626,0.729,1.626,1.626S398.843,327.24,397.945,327.24z" />
                    <path fill="#f27360" d="M397.945,351.698h-23.179c-0.898,0-1.626-0.729-1.626-1.626c0-0.897,0.728-1.626,1.626-1.626h23.179c0.898,0,1.626,0.729,1.626,1.626C399.571,350.969,398.843,351.698,397.945,351.698z" />
                    <path fill="#f27360" d="M403.879,334.729h-29.113c-0.898,0-1.626-0.729-1.626-1.626s0.728-1.626,1.626-1.626h29.113c0.898,0,1.626,0.729,1.626,1.626S404.777,334.729,403.879,334.729z" />
                    <rect x="355.13" y="420.446" transform="matrix(0.9932 -0.1161 0.1161 0.9932 -51.7705 45.1181)" fill="#D3E0E6" width="12.263" height="92.683" />
                    <path fill="#4a4c61" d="M360.55,515.154c-0.813,0-1.516-0.61-1.614-1.438l-10.762-92.056c-0.049-0.428,0.072-0.86,0.341-1.196c0.267-0.339,0.659-0.557,1.086-0.608l12.181-1.423c0.871-0.08,1.699,0.534,1.805,1.428l10.76,92.056c0.048,0.428-0.072,0.86-0.341,1.197c-0.267,0.339-0.659,0.557-1.086,0.607l-12.179,1.423C360.678,515.149,360.614,515.154,360.55,515.154z M351.594,422.898l10.386,88.824l8.947-1.046l-10.383-88.824L351.594,422.898z" />
                    <rect x="373.435" y="452.598" transform="matrix(0.9759 -0.2182 0.2182 0.9759 -96.2426 94.1288)" fill="#D3E0E6" width="9.441" height="60.63" />
                    <path fill="#4a4c61" d="M380.161,515.154c-0.743,0-1.417-0.515-1.584-1.271l-13.228-59.169c-0.095-0.421-0.019-0.864,0.214-1.229c0.231-0.364,0.597-0.62,1.019-0.715l9.214-2.059c0.862-0.188,1.745,0.356,1.942,1.232l13.226,59.17c0.093,0.421,0.017,0.864-0.216,1.228c-0.231,0.364-0.597,0.621-1.019,0.716l-9.212,2.059C380.398,515.141,380.279,515.154,380.161,515.154z M368.877,455.59l12.518,55.995l6.038-1.349l-12.516-55.995L368.877,455.59z" />
                    <path fill="#D3E0E6" d="M349.27,494.711h-78.756v18.816h78.756c0,0-5.826-2.316-5.826-9.405C343.444,497.034,349.27,494.711,349.27,494.711z" />
                    <path fill="#4a4c61" d="M349.269,515.154h-78.755c-0.898,0-1.626-0.729-1.626-1.626v-18.816c0-0.898,0.729-1.626,1.626-1.626h78.755c0.779,0,1.451,0.553,1.597,1.32c0.148,0.767-0.269,1.529-0.993,1.817c-0.188,0.078-4.802,2.054-4.802,7.901c0,5.917,4.751,7.874,4.8,7.893c0.724,0.29,1.144,1.053,0.995,1.817C350.72,514.599,350.048,515.154,349.269,515.154zM272.14,511.901h72.383c-1.442-1.713-2.706-4.227-2.706-7.778c0-3.554,1.265-6.07,2.708-7.785H272.14V511.901z" />
                    <path fill="#D3E0E6" d="M330.862,482.773h-66.103v11.766h66.103c0,0-3.643-1.449-3.643-5.881C327.219,484.225,330.862,482.773,330.862,482.773z" />
                    <path fill="#4a4c61" d="M330.862,496.164H264.76c-0.898,0-1.626-0.729-1.626-1.626v-11.764c0-0.898,0.729-1.626,1.626-1.626h66.102c0.78,0,1.45,0.553,1.597,1.319c0.147,0.767-0.27,1.529-0.994,1.817c-0.092,0.041-2.619,1.148-2.619,4.375c0,3.291,2.59,4.356,2.616,4.367c0.726,0.288,1.144,1.05,0.998,1.817C332.312,495.609,331.642,496.164,330.862,496.164zM266.386,492.911h60.326c-0.646-1.076-1.119-2.472-1.119-4.252c0-1.783,0.476-3.181,1.123-4.259h-60.329V492.911z" />
                    <path fill="#D3E0E6" d="M343.761,457.745h-66.103v11.766h66.103c0,0-3.643-1.449-3.643-5.881C340.118,459.197,343.761,457.745,343.761,457.745z" />
                    <path fill="#4a4c61" d="M343.761,471.137h-66.102c-0.897,0-1.626-0.729-1.626-1.626v-11.764c0-0.898,0.729-1.626,1.626-1.626h66.102c0.781,0,1.451,0.555,1.597,1.319c0.147,0.767-0.27,1.529-0.996,1.819c-0.091,0.038-2.618,1.146-2.618,4.371c0,3.226,2.525,4.331,2.633,4.375c0.712,0.303,1.123,1.067,0.969,1.825C345.192,470.588,344.535,471.137,343.761,471.137zM279.285,467.884h60.327c-0.646-1.076-1.12-2.474-1.12-4.255c0-1.783,0.474-3.179,1.121-4.256h-60.328V467.884z" />
                    <path fill="#D3E0E6" d="M351.392,445.979h-84.634v11.766h84.634c0,0-3.643-1.449-3.643-5.881C347.75,447.432,351.392,445.979,351.392,445.979z" />
                    <path fill="#4a4c61" d="M351.393,459.373h-84.635c-0.898,0-1.626-0.729-1.626-1.626V445.98c0-0.898,0.729-1.626,1.626-1.626h84.635c0.78,0,1.451,0.553,1.597,1.319c0.148,0.767-0.269,1.529-0.996,1.817c-0.091,0.041-2.62,1.15-2.62,4.375c0,3.225,2.526,4.331,2.635,4.375c0.713,0.303,1.122,1.067,0.969,1.826C352.825,458.824,352.166,459.373,351.393,459.373zM268.384,456.12h78.858c-0.646-1.076-1.121-2.474-1.121-4.254c0-1.783,0.476-3.181,1.123-4.259h-78.86V456.12z" />
                    <path fill="#D3E0E6" d="M347.904,469.177h-74.449v13.262h74.568c0,0-4.121-1.596-4.166-6.592C343.813,470.851,347.904,469.177,347.904,469.177z" />
                    <path fill="#4a4c61" d="M348.024,484.065h-74.569c-0.898,0-1.626-0.729-1.626-1.626v-13.261c0-0.898,0.729-1.626,1.626-1.626h74.45c0.777,0,1.446,0.55,1.597,1.313c0.148,0.762-0.262,1.524-0.98,1.819c-0.112,0.049-3.072,1.368-3.038,5.148c0.035,3.848,3.097,5.078,3.126,5.091c0.731,0.282,1.156,1.046,1.013,1.815C349.479,483.508,348.808,484.065,348.024,484.065zM275.082,480.813h68.6c-0.809-1.213-1.432-2.832-1.451-4.951c-0.019-2.167,0.602-3.82,1.413-5.057h-68.563V480.813z" />
                    <path fill="#f27360" d="M320.06,453.489h-46.664c-0.898,0-1.627-0.729-1.627-1.626s0.729-1.626,1.627-1.626h46.664c0.898,0,1.626,0.729,1.626,1.626S320.958,453.489,320.06,453.489z" />
                    <path fill="#f27360" d="M303.976,465.253h-19.155c-0.898,0-1.626-0.729-1.626-1.626s0.729-1.626,1.626-1.626h19.155c0.898,0,1.626,0.729,1.626,1.626S304.874,465.253,303.976,465.253z" />
                    <path fill="#f27360" d="M313.192,465.253h-4.118c-0.898,0-1.626-0.729-1.626-1.626s0.729-1.626,1.626-1.626h4.118c0.898,0,1.626,0.729,1.626,1.626S314.09,465.253,313.192,465.253z" />
                    <path fill="#f27360" d="M294.398,477.767H279.58c-0.898,0-1.626-0.729-1.626-1.626s0.729-1.626,1.626-1.626h14.819c0.898,0,1.626,0.729,1.626,1.626S295.296,477.767,294.398,477.767z" />
                    <path fill="#f27360" d="M326.746,477.767h-27.107c-0.898,0-1.626-0.729-1.626-1.626s0.729-1.626,1.626-1.626h27.107c0.898,0,1.626,0.729,1.626,1.626S327.644,477.767,326.746,477.767z" />
                    <path fill="#f27360" d="M303.073,490.283h-33.794c-0.897,0-1.626-0.729-1.626-1.627c0-0.897,0.729-1.626,1.626-1.626h33.794c0.898,0,1.626,0.729,1.626,1.626C304.699,489.555,303.971,490.283,303.073,490.283z" />
                    <path fill="#f27360" d="M303.073,503.407h-26.384c-0.898,0-1.626-0.729-1.626-1.626s0.729-1.626,1.626-1.626h26.384c0.898,0,1.626,0.729,1.626,1.626S303.971,503.407,303.073,503.407z" />
                    <path fill="#f27360" d="M313.192,509.37h-36.503c-0.898,0-1.626-0.729-1.626-1.626s0.729-1.626,1.626-1.626h36.503c0.898,0,1.626,0.729,1.626,1.626S314.09,509.37,313.192,509.37z" />
                    <path fill="#f27360" d="M365.872,507.447c-0.813,0-1.516-0.61-1.614-1.438l-4.013-34.331c-0.104-0.892,0.536-1.701,1.428-1.804c0.879-0.087,1.698,0.534,1.804,1.427l4.013,34.331c0.104,0.892-0.536,1.701-1.427,1.804C366,507.443,365.936,507.447,365.872,507.447z" />
                    <path fill="#f27360" d="M383.498,508.525c-0.743,0-1.417-0.515-1.586-1.271l-3.09-13.822c-0.195-0.877,0.358-1.747,1.232-1.944c0.875-0.178,1.747,0.355,1.944,1.232l3.089,13.822c0.195,0.877-0.357,1.747-1.232,1.944C383.735,508.513,383.617,508.525,383.498,508.525z" />
                    <path fill="#f27360" d="M379.432,490.342c-0.743,0-1.417-0.515-1.584-1.271l-2.146-9.596c-0.197-0.876,0.356-1.747,1.23-1.942c0.879-0.199,1.749,0.354,1.942,1.23l2.145,9.595c0.197,0.877-0.354,1.748-1.23,1.942C379.669,490.33,379.551,490.342,379.432,490.342z" />
                    <circle fill="#BCC7CC" cx="920.33" cy="145.604" r="63.973" />
                    <path fill="#4a4c61" d="M920.33,211.203c-36.171,0-65.6-29.428-65.6-65.599s29.429-65.599,65.6-65.599s65.6,29.428,65.6,65.599S956.501,211.203,920.33,211.203z M920.33,83.258c-34.377,0-62.346,27.969-62.346,62.346c0,34.377,27.969,62.346,62.346,62.346s62.346-27.969,62.346-62.346C982.676,111.227,954.707,83.258,920.33,83.258z" />
                    <circle fill="#D3E0E6" cx="920.33" cy="145.604" r="55.324" />
                    <path fill="#4a4c61" d="M920.33,202.554c-31.402,0-56.95-25.548-56.95-56.95s25.548-56.95,56.95-56.95s56.95,25.548,56.95,56.95S951.732,202.554,920.33,202.554z M920.33,91.907c-29.608,0-53.697,24.089-53.697,53.697c0,29.608,24.089,53.697,53.697,53.697c29.607,0,53.697-24.089,53.697-53.697C974.027,115.996,949.938,91.907,920.33,91.907z" />
                    <path fill="#f27360" d="M940.309,112.623c-0.275,0-0.555-0.07-0.811-0.218c-0.777-0.449-1.045-1.444-0.596-2.222l4.604-7.975c0.447-0.775,1.441-1.046,2.223-0.595c0.777,0.449,1.043,1.444,0.595,2.222l-4.604,7.975C941.418,112.33,940.872,112.623,940.309,112.623z" />
                    <path fill="#f27360" d="M962.911,171.815c-0.274,0-0.555-0.07-0.812-0.218l-7.96-4.596c-0.777-0.449-1.044-1.444-0.595-2.221c0.446-0.775,1.441-1.046,2.221-0.595l7.961,4.596c0.777,0.449,1.044,1.444,0.596,2.221C964.021,171.523,963.475,171.815,962.911,171.815z" />
                    <path fill="#f27360" d="M885.729,127.254c-0.275,0-0.555-0.07-0.812-0.218l-7.983-4.61c-0.777-0.449-1.045-1.444-0.596-2.221c0.447-0.775,1.44-1.046,2.222-0.595l7.983,4.61c0.777,0.449,1.045,1.444,0.596,2.222C886.838,126.962,886.291,127.254,885.729,127.254z" />
                    <path fill="#f27360" d="M895.743,189.812c-0.275,0-0.556-0.07-0.812-0.218c-0.777-0.449-1.044-1.444-0.595-2.222l4.595-7.958c0.449-0.777,1.44-1.046,2.223-0.595c0.777,0.449,1.043,1.444,0.595,2.221l-4.596,7.958C896.853,189.52,896.307,189.812,895.743,189.812z" />
                    <path fill="#f27360" d="M920.33,107.275c-0.898,0-1.627-0.729-1.627-1.626v-9.217c0-0.898,0.729-1.626,1.627-1.626s1.626,0.729,1.626,1.626v9.217C921.956,106.547,921.229,107.275,920.33,107.275z" />
                    <path fill="#f27360" d="M969.502,147.23h-9.215c-0.897,0-1.626-0.729-1.626-1.626s0.729-1.626,1.626-1.626h9.215c0.898,0,1.627,0.729,1.627,1.626S970.4,147.23,969.502,147.23z" />
                    <path fill="#f27360" d="M880.373,147.23h-9.215c-0.898,0-1.627-0.729-1.627-1.626s0.729-1.626,1.627-1.626h9.215c0.896,0,1.626,0.729,1.626,1.626S881.27,147.23,880.373,147.23z" />
                    <path fill="#f27360" d="M920.33,196.4c-0.898,0-1.627-0.729-1.627-1.626v-9.216c0-0.898,0.729-1.627,1.627-1.627s1.626,0.729,1.626,1.627v9.216C921.956,195.672,921.229,196.4,920.33,196.4z" />
                    <path fill="#f27360" d="M900.328,112.58c-0.563,0-1.109-0.292-1.41-0.813l-4.581-7.933c-0.449-0.777-0.183-1.772,0.595-2.222c0.779-0.451,1.773-0.18,2.222,0.595l4.581,7.933c0.449,0.777,0.182,1.772-0.596,2.221C900.883,112.51,900.604,112.58,900.328,112.58z" />
                    <path fill="#f27360" d="M954.94,127.25c-0.563,0-1.11-0.292-1.411-0.813c-0.448-0.777-0.182-1.772,0.596-2.222l7.975-4.606c0.779-0.451,1.775-0.18,2.223,0.595c0.448,0.777,0.182,1.772-0.596,2.221l-7.975,4.606C955.495,127.18,955.215,127.25,954.94,127.25z" />
                    <path fill="#f27360" d="M877.748,171.815c-0.563,0-1.109-0.292-1.41-0.813c-0.449-0.777-0.182-1.772,0.596-2.221l7.961-4.596c0.781-0.451,1.773-0.18,2.221,0.595c0.449,0.777,0.182,1.772-0.595,2.221l-7.961,4.596C878.304,171.746,878.023,171.815,877.748,171.815z" />
                    <path fill="#f27360" d="M944.917,189.812c-0.563,0-1.11-0.292-1.411-0.813l-4.615-7.997c-0.449-0.777-0.184-1.772,0.594-2.221c0.781-0.451,1.773-0.18,2.222,0.595l4.617,7.997c0.448,0.777,0.183,1.773-0.595,2.222C945.472,189.742,945.192,189.812,944.917,189.812z" />
                    <path fill="#4a4c61" d="M919.76,147.23c-0.171,0-0.345-0.027-0.514-0.084c-0.854-0.284-1.313-1.205-1.027-2.057l13.35-39.955c0.284-0.854,1.219-1.307,2.057-1.027c0.854,0.284,1.313,1.205,1.027,2.056l-13.35,39.956C921.075,146.801,920.439,147.23,919.76,147.23z" />
                    <path fill="#4a4c61" d="M939.699,169.869c-0.451,0-0.9-0.187-1.221-0.551l-19.938-22.639c-0.596-0.675-0.529-1.702,0.144-2.295c0.673-0.593,1.706-0.529,2.296,0.144l19.938,22.639c0.596,0.675,0.53,1.703-0.144,2.295C940.465,169.736,940.082,169.869,939.699,169.869z" />
                    <rect x="202.048" y="411.088" fill="#D3E0E6" width="30.712" height="102.11" />
                    <path fill="#4a4c61" d="M232.76,514.825h-30.711c-0.898,0-1.626-0.729-1.626-1.626V411.088c0-0.898,0.729-1.626,1.626-1.626h30.711c0.898,0,1.626,0.729,1.626,1.626v102.111C234.386,514.097,233.658,514.825,232.76,514.825z M203.675,511.573h27.458v-98.858h-27.458V511.573z" />
                    <polygon fill="#4a4c61" points="215.512,411.088 202.048,424.553 202.048,411.088" />
                    <path fill="#4a4c61" d="M202.048,426.179c-0.21,0-0.421-0.041-0.623-0.123c-0.608-0.252-1.004-0.845-1.004-1.503v-13.465c0-0.898,0.729-1.626,1.626-1.626h13.463c0.658,0,1.25,0.396,1.502,1.004s0.112,1.307-0.353,1.772l-13.463,13.465C202.887,426.014,202.471,426.179,202.048,426.179z M203.675,412.714v7.912l7.91-7.912H203.675z" />
                    <polygon fill="#4a4c61" points="219.295,411.088 232.76,424.553 232.76,411.088" />
                    <path fill="#4a4c61" d="M232.76,426.179c-0.422,0-0.839-0.166-1.15-0.477l-13.465-13.465c-0.465-0.466-0.604-1.165-0.353-1.772s0.845-1.004,1.502-1.004h13.465c0.898,0,1.626,0.729,1.626,1.626v13.465c0,0.658-0.396,1.251-1.004,1.503C233.181,426.139,232.969,426.179,232.76,426.179z M223.221,412.714l7.912,7.912v-7.912H223.221z" />
                    <path fill="#4a4c61" d="M217.404,496.45c-4.443,0-8.058-3.615-8.058-8.058c0-4.443,3.615-8.056,8.058-8.056s8.057,3.613,8.057,8.056C225.461,492.835,221.847,496.45,217.404,496.45z M217.404,483.589c-2.649,0-4.805,2.154-4.805,4.803c0,2.649,2.156,4.806,4.805,4.806s4.804-2.156,4.804-4.806C222.208,485.743,220.053,483.589,217.404,483.589z" />
                    <rect x="164.83" y="411.088" fill="#D3E0E6" width="30.712" height="102.11" />
                    <path fill="#4a4c61" d="M195.542,514.825H164.83c-0.898,0-1.626-0.729-1.626-1.626V411.088c0-0.898,0.729-1.626,1.626-1.626h30.711c0.897,0,1.626,0.729,1.626,1.626v102.111C197.168,514.097,196.439,514.825,195.542,514.825z M166.456,511.573h27.459v-98.858h-27.459V511.573z" />
                    <polygon fill="#4a4c61" points="178.294,411.088 164.83,424.553 164.83,411.088" />
                    <path fill="#4a4c61" d="M164.83,426.179c-0.21,0-0.421-0.041-0.623-0.123c-0.608-0.252-1.004-0.845-1.004-1.503v-13.465c0-0.898,0.729-1.626,1.626-1.626h13.464c0.658,0,1.25,0.396,1.503,1.004c0.252,0.608,0.112,1.307-0.353,1.772l-13.464,13.465C165.668,426.014,165.252,426.179,164.83,426.179z M166.456,412.714v7.912l7.912-7.912H166.456z" />
                    <polygon fill="#4a4c61" points="182.077,411.088 195.542,424.553 195.542,411.088" />
                    <path fill="#4a4c61" d="M195.542,426.179c-0.422,0-0.839-0.166-1.15-0.477l-13.465-13.465c-0.465-0.466-0.604-1.165-0.353-1.772s0.845-1.004,1.503-1.004h13.464c0.897,0,1.626,0.729,1.626,1.626v13.465c0,0.658-0.396,1.251-1.004,1.503C195.963,426.139,195.751,426.179,195.542,426.179z M186.003,412.714l7.912,7.912v-7.912H186.003z" />
                    <path fill="#4a4c61" d="M180.186,496.45c-4.443,0-8.058-3.615-8.058-8.058c0-4.443,3.615-8.056,8.058-8.056c4.443,0,8.058,3.613,8.058,8.056C188.244,492.835,184.629,496.45,180.186,496.45z M180.186,483.589c-2.649,0-4.805,2.154-4.805,4.803c0,2.649,2.155,4.806,4.805,4.806s4.805-2.156,4.805-4.806C184.991,485.743,182.835,483.589,180.186,483.589z" />
                    <rect x="128.383" y="411.088" fill="#D3E0E6" width="30.712" height="102.11" />
                    <path fill="#4a4c61" d="M159.094,514.825h-30.711c-0.898,0-1.626-0.729-1.626-1.626V411.088c0-0.898,0.729-1.626,1.626-1.626h30.711c0.898,0,1.626,0.729,1.626,1.626v102.111C160.721,514.097,159.992,514.825,159.094,514.825z M130.009,511.573h27.458v-98.858h-27.458V511.573z" />
                    <polygon fill="#4a4c61" points="141.847,411.088 128.383,424.553 128.383,411.088" />
                    <path fill="#4a4c61" d="M128.383,426.179c-0.21,0-0.421-0.041-0.623-0.123c-0.608-0.252-1.004-0.845-1.004-1.503v-13.465c0-0.898,0.729-1.626,1.626-1.626h13.464c0.658,0,1.25,0.396,1.502,1.004c0.252,0.608,0.112,1.307-0.353,1.772l-13.464,13.465C129.221,426.014,128.805,426.179,128.383,426.179z M130.009,412.714v7.912l7.912-7.912H130.009z" />
                    <polygon fill="#4a4c61" points="145.63,411.088 159.095,424.553 159.095,411.088" />
                    <path fill="#4a4c61" d="M159.094,426.179c-0.423,0-0.839-0.166-1.15-0.477l-13.463-13.465c-0.465-0.466-0.605-1.165-0.353-1.772s0.845-1.004,1.503-1.004h13.463c0.898,0,1.626,0.729,1.626,1.626v13.465c0,0.658-0.396,1.251-1.004,1.503C159.516,426.139,159.304,426.179,159.094,426.179z M149.557,412.714l7.911,7.912v-7.912H149.557z" />
                    <path fill="#4a4c61" d="M143.738,496.45c-4.443,0-8.057-3.615-8.057-8.058c0-4.443,3.614-8.056,8.057-8.056s8.058,3.613,8.058,8.056C151.796,492.835,148.181,496.45,143.738,496.45z M143.738,483.589c-2.649,0-4.804,2.154-4.804,4.803c0,2.649,2.155,4.806,4.804,4.806c2.649,0,4.805-2.156,4.805-4.806C148.543,485.743,146.388,483.589,143.738,483.589z" />
                    <rect x="961.836" y="502.28" fill="#BCC7CC" width="74.121" height="9.352" />
                    <path fill="#4a4c61" d="M960.21,511.633v-9.352c0-0.898,0.728-1.627,1.626-1.627h74.121c0.898,0,1.626,0.729,1.626,1.627v9.352c0,0.898-0.728,1.626-1.626,1.626h-74.121C960.938,513.259,960.21,512.531,960.21,511.633z M1034.33,503.907h-70.867v6.099h70.867V503.907z" />
                    <circle fill="#BCC7CC" cx="1056.738" cy="371.703" r="9.352" />
                    <path fill="#4a4c61" d="M1045.76,371.703c0-6.052,4.926-10.978,10.979-10.978c6.054,0,10.979,4.926,10.979,10.978c0,6.053-4.925,10.979-10.979,10.979C1050.686,382.682,1045.76,377.756,1045.76,371.703z M1049.013,371.703c0,4.261,3.466,7.726,7.726,7.726s7.726-3.464,7.726-7.726c0-4.261-3.466-7.726-7.726-7.726S1049.013,367.442,1049.013,371.703z" />
                    <path fill="#BCC7CC" d="M1049.219,377.216c1.701,2.317,4.424,3.838,7.52,3.838c0.812,0,1.584-0.135,2.335-0.33l-43.205,121.555h-11.103L1049.219,377.216z" />
                    <path fill="#4a4c61" d="M1003.438,503.219c-0.306-0.432-0.381-0.985-0.203-1.482l44.451-125.065c0.201-0.567,0.701-0.976,1.295-1.065c0.592-0.076,1.191,0.163,1.549,0.646c1.483,2.019,3.746,3.177,6.209,3.177c0.582,0,1.194-0.089,1.926-0.277c0.582-0.155,1.202,0.03,1.609,0.475c0.406,0.444,0.534,1.076,0.332,1.643L1017.4,502.825c-0.23,0.648-0.844,1.082-1.532,1.082h-11.103C1004.237,503.907,1003.742,503.651,1003.438,503.219z M1056.651,382.682c-2.516-0.019-4.879-0.883-6.784-2.438l-42.797,120.41h7.65L1056.651,382.682z" />
                    <circle fill="#BCC7CC" cx="965.109" cy="323.095" r="9.352" />
                    <path fill="#4a4c61" d="M963.533,333.959c-2.902-0.421-5.467-1.946-7.221-4.297c-1.754-2.349-2.488-5.242-2.067-8.143c0.854-5.881,6.408-10.18,12.442-9.289c5.989,0.87,10.154,6.453,9.287,12.441c-0.779,5.36-5.443,9.403-10.851,9.403C964.599,334.075,964.067,334.037,963.533,333.959z M957.465,321.985c-0.297,2.042,0.219,4.077,1.454,5.73s3.039,2.728,5.081,3.024c4.246,0.629,8.154-2.393,8.756-6.533c0.61-4.216-2.322-8.145-6.536-8.757c-0.377-0.055-0.751-0.081-1.121-0.081C961.294,315.369,958.012,318.213,957.465,321.985z" />
                    <path fill="#BCC7CC" d="M1052.585,363.365c-3.069,1.533-5.198,4.673-5.198,8.338c0,0.271,0.057,0.525,0.08,0.789l-77.982-41.163c2.538-1.352,4.436-3.828,4.88-6.891c0.116-0.803,0.093-1.587,0.009-2.358L1052.585,363.365z" />
                    <path fill="#4a4c61" d="M1046.707,373.931l-77.982-41.165c-0.532-0.282-0.865-0.833-0.867-1.436c0-0.601,0.331-1.154,0.862-1.438c2.211-1.177,3.682-3.249,4.036-5.686c0.083-0.576,0.083-1.196,0-1.948c-0.065-0.599,0.205-1.184,0.703-1.522c0.497-0.339,1.141-0.377,1.674-0.093l78.211,41.285c0.539,0.284,0.873,0.847,0.867,1.457c-0.008,0.61-0.355,1.163-0.9,1.436c-2.651,1.324-4.298,3.962-4.298,6.882c0,0.093,0.017,0.183,0.03,0.271l0.044,0.383c0.05,0.591-0.228,1.165-0.724,1.493c-0.271,0.178-0.584,0.269-0.897,0.269C1047.205,374.12,1046.945,374.058,1046.707,373.931z M975.961,324.757c-0.379,2.488-1.574,4.704-3.385,6.364l73.343,38.716c0.421-2.446,1.662-4.655,3.517-6.293L975.961,324.757z" />
                    <path fill="#BCC7CC" d="M1066.09,371.703c0-0.438-0.07-0.855-0.129-1.277l22.499,11.876l-1.595,10.987l-25.541-13.482C1064.156,378.2,1066.09,375.193,1066.09,371.703z" />
                    <path fill="#4a4c61" d="M1086.105,394.728l-25.541-13.481c-0.525-0.278-0.858-0.82-0.867-1.413c-0.009-0.595,0.307-1.148,0.823-1.44c2.433-1.38,3.943-3.943,3.943-6.69c0-0.292-0.046-0.574-0.114-1.055c-0.082-0.604,0.179-1.205,0.679-1.554c0.499-0.35,1.153-0.394,1.692-0.106l22.498,11.876c0.609,0.322,0.949,0.991,0.851,1.671l-1.595,10.987c-0.076,0.523-0.4,0.976-0.872,1.218c-0.232,0.116-0.484,0.176-0.737,0.176C1086.605,394.916,1086.344,394.853,1086.105,394.728z M1067.62,373.141c-0.331,2.446-1.493,4.712-3.272,6.423l21.238,11.211l1.1-7.571L1067.62,373.141z" />
                    <path fill="#4a4c61" d="M937.164,326.742c0.631,0,1.232-0.371,1.496-0.989l5.186-12.162l12.193,6.565c0.787,0.432,1.775,0.131,2.202-0.661c0.427-0.79,0.13-1.777-0.661-2.202l-13.762-7.41c-0.404-0.218-0.879-0.254-1.309-0.104c-0.432,0.153-0.779,0.477-0.957,0.898l-5.883,13.801c-0.354,0.826,0.031,1.781,0.857,2.133C936.734,326.699,936.951,326.742,937.164,326.742z" />
                    <path fill="#BCC7CC" d="M884.617,350.211c9.24-21.898,32.499-32.997,51.951-24.79c19.453,8.208,27.732,32.613,18.492,54.511L884.617,350.211z" />
                    <path fill="#4a4c61" d="M954.428,381.432l-70.443-29.722c-0.396-0.17-0.712-0.487-0.873-0.888c-0.163-0.398-0.161-0.847,0.006-1.245c7.19-17.039,23.279-28.486,40.032-28.486c4.868,0,9.598,0.953,14.054,2.832c9.841,4.153,17.268,12.355,20.911,23.098c3.62,10.673,3.068,22.586-1.556,33.545c-0.262,0.621-0.865,0.993-1.5,0.993C954.849,381.559,954.635,381.519,954.428,381.432z M886.775,349.355l67.394,28.437c3.749-9.799,4.065-20.294,0.865-29.727c-3.342-9.85-10.123-17.359-19.099-21.144c-4.053-1.711-8.354-2.577-12.786-2.577C908.175,324.344,893.744,334.33,886.775,349.355z" />
                    <circle fill="#4a4c61" cx="942.701" cy="311.714" r="4.502" />
                    <path fill="#4a4c61" d="M936.571,311.714c0-3.38,2.749-6.129,6.129-6.129s6.129,2.749,6.129,6.129c0,3.38-2.749,6.128-6.129,6.128S936.571,315.094,936.571,311.714z M939.824,311.714c0,1.586,1.29,2.875,2.876,2.875s2.876-1.29,2.876-2.875c0-1.586-1.29-2.876-2.876-2.876S939.824,310.128,939.824,311.714z" />
                    <rect x="188.817" y="83.256" fill="#BCC7CC" width="164.896" height="194.051" />
                    <path fill="#4a4c61" d="M353.713,278.934H188.817c-0.897,0-1.626-0.729-1.626-1.626V83.257c0-0.898,0.729-1.626,1.626-1.626h164.896c0.898,0,1.626,0.729,1.626,1.626v194.05C355.34,278.206,354.611,278.934,353.713,278.934z M190.444,275.681h161.643V84.883H190.444V275.681z" />
                    <rect x="209.848" y="104.048" fill="#D3E0E6" width="122.835" height="152.469" />
                    <path fill="#4a4c61" d="M332.683,258.142H209.848c-0.898,0-1.626-0.729-1.626-1.626V104.047c0-0.898,0.729-1.626,1.626-1.626h122.835c0.898,0,1.626,0.729,1.626,1.626v152.469C334.309,257.414,333.581,258.142,332.683,258.142z M211.474,254.889h119.583V105.673H211.474V254.889z" />
                    <path fill="#f27360" stroke="#f27360" stroke-miterlimit="10" d="M237.228,184.625h-2.581l-5.273-20.249h1.934l4.711,18.426h0.057l5.917-18.426h2.218l6.168,18.426h0.057l4.684-18.426h1.768l-5.33,20.249h-2.496l-5.974-18.37h-0.055L237.228,184.625z" />
                    <path fill="#f27360" stroke="#f27360" stroke-miterlimit="10" d="M266.522,185.046c-5.805,0-9.029-4.235-9.029-10.545c0-6.311,3.224-10.546,9.029-10.546c5.807,0,9.032,4.235,9.032,10.546C275.554,180.811,272.329,185.046,266.522,185.046zM266.522,183.364c5.049,0,7.068-4.431,7.068-8.863s-2.019-8.863-7.068-8.863c-5.047,0-7.065,4.431-7.065,8.863S261.475,183.364,266.522,183.364z" />
                    <path fill="#f27360" stroke="#f27360" stroke-miterlimit="10" d="M282.156,184.625h-1.823v-20.249h6.618c1.768,0,3.227,0.112,4.769,1.065c1.402,0.841,2.076,2.299,2.076,4.235c0,2.188-1.542,3.759-3.898,4.347v0.057c2.581,0.42,3.14,2.16,3.394,4.515c0.366,3.281,0.251,4.795,1.066,6.03h-2.103c-0.477-1.346-0.589-2.777-0.704-4.207c-0.42-4.628-0.701-5.44-4.373-5.44h-5.021V184.625z M286.054,173.295c2.581,0,5.778-0.169,5.778-3.619c0-3.898-3.645-3.617-5.582-3.617h-4.094v7.236H286.054z" />
                    <path fill="#f27360" stroke="#f27360" stroke-miterlimit="10" d="M299.135,184.625v-20.249h1.795l0.027,8.919l9.059-8.919h2.3l-9.34,9.143l10.181,11.106h-2.496l-9.703-10.573l-0.027,10.573H299.135z" />
                    <path fill="#f27360" stroke="#f27360" stroke-miterlimit="10" d="M237.797,197.534h-8.451v-2.177H248.5v2.177h-8.306l-0.036,24.015h-2.322L237.797,197.534z" />
                    <path fill="#f27360" stroke="#f27360" stroke-miterlimit="10" d="M252.901,221.549v-26.302h2.357v26.302H252.901z" />
                    <path fill="#f27360" stroke="#f27360" stroke-miterlimit="10" d="M262.628,221.549v-26.192h3.775l9.831,22.819l10.049-22.819h3.589v26.192h-2.357v-24.197h-0.071l-10.014,24.197h-2.357l-10.014-24.089h-0.071v24.089H262.628z" />
                    <path fill="#f27360" stroke="#f27360" stroke-miterlimit="10" d="M297.077,221.549v-26.192h15.561v2.177h-13.204v9.395h12.696v2.177h-12.696v10.267h13.75v2.177H297.077z" />
                    <path fill="#f27360" stroke="#f27360" stroke-miterlimit="10" d="M229.34,139.309h1.451l7.8,12.445h0.038v-12.445h1.273v14.15h-1.607l-7.642-12.23h-0.04v12.23h-1.273V139.309z" />
                    <path fill="#f27360" stroke="#f27360" stroke-miterlimit="10" d="M249.318,153.753c-4.057,0-6.31-2.959-6.31-7.369c0-4.41,2.253-7.37,6.31-7.37c4.058,0,6.312,2.959,6.312,7.37C255.629,150.793,253.376,153.753,249.318,153.753zM249.318,152.578c3.528,0,4.939-3.097,4.939-6.193s-1.411-6.193-4.939-6.193c-3.527,0-4.938,3.097-4.938,6.193S245.791,152.578,249.318,152.578z" />
                    <path fill="#f27360" stroke="#f27360" stroke-miterlimit="10" d="M261.558,153.459h-1.803l-3.685-14.15h1.352l3.292,12.876h0.04l4.135-12.876h1.55l4.31,12.876h0.04l3.273-12.876h1.235l-3.725,14.15h-1.744l-4.175-12.837h-0.039L261.558,153.459z" />
                    <path fill="#f27360" stroke="#f27360" stroke-miterlimit="10" d="M283.031,153.459V139.25h1.273v14.209H283.031z" />
                    <path fill="#f27360" stroke="#f27360" stroke-miterlimit="10" d="M290.838,140.485h-4.566v-1.176h10.348v1.176h-4.487l-0.019,12.974h-1.254L290.838,140.485z" />
                    <path fill="#f27360" d="M298.86,139.603l1.784,2.803h-0.863l-2.488-2.803H298.86z" />
                    <path fill="#f27360" stroke="#f27360" stroke-miterlimit="10" d="M307.703,153.753c-2.255,0-4.155-1.646-4.214-3.979h1.373c0.04,2.176,1.646,2.803,3.547,2.803c1.588,0,3.41-0.921,3.41-2.724c0-1.412-1.02-2.078-2.215-2.469c-2.293-0.765-5.781-1.49-5.781-4.547c0-2.47,2.274-3.822,4.508-3.822c1.861,0,4.291,0.647,4.605,3.371h-1.373c-0.038-1.744-1.626-2.195-3.077-2.195c-1.47,0-3.292,0.745-3.292,2.469c0,4.018,7.997,2.195,7.997,7.075C313.191,152.813,310.545,153.753,307.703,153.753z" />
                    </svg>